<?xml version="1.0" encoding="UTF-8" standalone="no"?>
<!-- Created with Inkscape (http://www.inkscape.org/) -->

<svg
   width="64.116425mm"
   height="54.754364mm"
   viewBox="0 0 64.116425 54.754364"
   version="1.1"
   id="svg5"
   xml:space="preserve"
   inkscape:version="1.2.2 (b0a8486, 2022-12-01)"
   sodipodi:docname="dessin.svg"
   inkscape:export-filename="forth.svg"
   inkscape:export-xdpi="96"
   inkscape:export-ydpi="96"
   xmlns:inkscape="http://www.inkscape.org/namespaces/inkscape"
   xmlns:sodipodi="http://sodipodi.sourceforge.net/DTD/sodipodi-0.dtd"
   xmlns="http://www.w3.org/2000/svg"
   xmlns:svg="http://www.w3.org/2000/svg"><sodipodi:namedview
     id="namedview7"
     pagecolor="#ffffff"
     bordercolor="#000000"
     borderopacity="0.25"
     inkscape:showpageshadow="2"
     inkscape:pageopacity="0.0"
     inkscape:pagecheckerboard="0"
     inkscape:deskcolor="#d1d1d1"
     inkscape:document-units="mm"
     showgrid="false"
     inkscape:zoom="0.87289314"
     inkscape:cx="319.05395"
     inkscape:cy="596.86573"
     inkscape:window-width="1792"
     inkscape:window-height="1120"
     inkscape:window-x="0"
     inkscape:window-y="0"
     inkscape:window-maximized="0"
     inkscape:current-layer="layer2" /><defs
     id="defs2" /><g
     inkscape:label="Calque 1"
     inkscape:groupmode="layer"
     id="layer1"
     sodipodi:insensitive="true"
     transform="translate(-69.618013,-132.78982)"><path
       style="display:none;fill:#000000;stroke-width:0.176389"
       d="m 96.421317,229.37901 c -0.25947,-0.25961 -0.2788,-1.18316 -0.0459,-2.19147 0.14965,-0.64789 1.1807,-2.01553 1.51947,-2.01553 0.0716,0 0.25818,-0.11577 0.41453,-0.25727 0.35669,-0.3228 3.248753,-1.29773 4.770583,-1.6082 1.32664,-0.27064 3.89863,-1.1292 4.25462,-1.42023 0.13381,-0.1094 0.42614,-0.255 0.64961,-0.32356 0.48893,-0.15002 2.40563,-2.03686 2.74808,-2.7053 0.13425,-0.26203 0.40926,-1.1511 0.61114,-1.97572 0.36631,-1.49626 0.36675,-1.54583 0.21666,-24.42986 -0.1418,-21.62344 -0.16909,-22.99092 -0.47879,-23.9896 -0.36786,-1.18627 -0.72992,-1.75986 -1.69424,-2.68412 -0.68463,-0.6562 -0.80629,-0.73985 -2.09393,-1.4399 -0.42546,-0.23132 -0.81602,-0.4862 -0.86794,-0.56641 -0.0519,-0.0802 -0.45813,-0.30675 -0.90274,-0.50342 -0.4446,-0.19667 -0.90794,-0.47757 -1.02965,-0.62422 -0.12171,-0.14665 -0.29265,-0.26663 -0.37987,-0.26663 -0.0872,0 -0.49421,-0.21302 -0.90443,-0.47337 -2.15128,-1.36528 -2.71608,-1.74444 -3.02811,-2.03282 -0.188063,-0.17382 -0.394763,-0.31604 -0.459303,-0.31604 -0.0645,0 -0.34725,-0.19796 -0.62821,-0.43991 -0.28095,-0.24195 -0.70925,-0.59964 -0.95179,-0.79487 -1.06964,-0.86101 -2.8442,-2.64997 -3.67432,-3.70411 -0.49657,-0.63059 -1.02064,-1.28214 -1.16459,-1.44789 -0.14395,-0.16575 -0.42506,-0.60231 -0.6247,-0.97013 -0.19964,-0.36783 -0.62904,-1.15189 -0.95425,-1.74236 -0.32522,-0.59047 -0.68795,-1.38422 -0.80608,-1.76389 -0.11812,-0.37967 -0.3608,-1.08718 -0.53927,-1.57225 -0.17845,-0.48507 -0.50897,-1.63601 -0.73445,-2.55764 -0.37728,-1.542 -0.40966,-2.04863 -0.40597,-6.35 0.003,-3.71523 0.0655,-4.96384 0.30368,-6.08542 0.16482,-0.77611 0.38635,-2.12549 0.49227,-2.99861 0.10592,-0.87313 0.33958,-2.26219 0.51927,-3.08681 0.17967,-0.82461 0.45646,-2.09461 0.61507,-2.82222 0.55227,-2.5336 1.12074,-4.86164 1.59362,-6.52639 0.2618,-0.92163 0.62175,-2.2056 0.79991,-2.85325 0.17815,-0.64766 0.44125,-1.40447 0.58465,-1.6818 0.14341,-0.27732 0.31615,-0.81898 0.38386,-1.20368 0.0677,-0.3847 0.24901,-0.8979 0.40287,-1.14043 0.15387,-0.24254 0.40496,-0.91723 0.55798,-1.49931 0.15301,-0.58208 0.35556,-1.01865 0.4501,-0.97014 0.31043,0.15929 0.15731,2.04653 -0.24122,2.97293 -0.20936,0.48666 -0.38065,1.0711 -0.38065,1.29876 0,0.22766 -0.12444,0.84795 -0.27656,1.37841 -0.4218,1.47104 -1.1022,4.48562 -1.41203,6.25615 -0.15279,0.87313 -0.38996,2.09215 -0.52703,2.70894 -0.13707,0.6168 -0.33726,1.80742 -0.44484,2.64584 -0.1076,0.83841 -0.31177,2.35783 -0.45372,3.37647 -0.49991,3.58723 -0.6211,5.77263 -0.54293,9.78959 0.0677,3.48062 0.13429,4.2574 0.46838,5.46805 0.61735,2.23702 1.3997,4.48639 1.68715,4.8507 0.11481,0.14552 0.316,0.54239 0.44707,0.88194 0.13108,0.33955 0.38529,0.8158 0.56494,1.05833 0.17965,0.24254 0.67748,0.91723 1.10628,1.49931 0.98486,1.33694 1.98402,2.38842 3.44023,3.62042 1.381253,1.16859 2.593083,2.11222 2.712553,2.11222 0.048,0 0.61651,0.36226 1.26324,0.80503 0.64673,0.44277 1.34629,0.88567 1.55457,0.98422 0.20826,0.0986 0.85492,0.4465 1.437,0.77322 0.58209,0.32671 1.37697,0.74609 1.7664,0.93196 0.38943,0.18586 0.81587,0.46783 0.94763,0.62661 0.13178,0.15877 0.33648,0.28868 0.45491,0.28868 0.56134,0 3.79843,2.80349 3.79843,3.28963 0,0.0859 0.19976,0.45024 0.44393,0.80956 0.46161,0.67933 0.869,2.2785 1.15752,4.54387 0.2263,1.77681 0.0391,41.84755 -0.20606,44.09722 -0.34752,3.18955 -0.52532,4.10389 -0.99021,5.09246 -0.73486,1.56265 -1.72724,2.70916 -3.38342,3.9089 -0.7369,0.53379 -3.00934,1.58197 -3.42973,1.58197 -0.14488,0 -0.68721,0.15173 -1.20516,0.33718 -0.51796,0.18545 -1.73388,0.45729 -2.70206,0.60408 -1.39977,0.21223 -1.82429,0.34589 -2.07257,0.6525 -0.49629,0.61289 -0.38864,0.845 0.43741,0.94308 0.41231,0.049 5.55184,0.1826 11.42118,0.29699 5.86934,0.1144 11.30653,0.2578 12.08264,0.31868 l 1.41111,0.11069 -2.38125,0.23083 c -3.63414,0.35229 -10.49413,0.70818 -15.78681,0.81899 -2.61937,0.0549 -6.27062,0.14275 -8.113893,0.19535 -2.55259,0.0728 -3.40393,0.043 -3.57187,-0.12498 z m 21.450603,-46.12903 c -0.24361,-0.0648 -0.30588,-0.4587 -0.39407,-2.49308 -0.34489,-7.95418 -0.27007,-12.89364 0.20436,-13.49241 0.0927,-0.11694 0.27071,-0.53012 0.39564,-0.91817 0.2389,-0.74203 1.01639,-1.84989 1.75909,-2.50657 0.24254,-0.21445 0.59973,-0.53996 0.79375,-0.72336 0.19403,-0.18339 0.55122,-0.43654 0.79375,-0.56254 0.24254,-0.126 0.48066,-0.28551 0.52917,-0.35447 0.0485,-0.069 0.36601,-0.26508 0.70556,-0.43584 0.33955,-0.17075 0.75078,-0.42729 0.91387,-0.57009 0.29578,-0.25901 0.91621,-0.62666 2.08474,-1.23535 0.66798,-0.34796 2.1499,-1.30257 2.29305,-1.47713 0.0485,-0.0592 0.28664,-0.20978 0.52917,-0.33475 0.24253,-0.12497 0.56003,-0.33581 0.70556,-0.46854 0.14552,-0.13272 0.74083,-0.59223 1.32291,-1.02112 1.28918,-0.94989 2.53102,-2.13235 3.71719,-3.53941 0.78738,-0.93402 1.19018,-1.48856 2.37033,-3.2632 0.42961,-0.64603 1.5854,-3.26141 1.5854,-3.58754 0,-0.15397 0.1554,-0.67422 0.34535,-1.15611 0.43134,-1.09432 0.92019,-4.68155 0.94001,-6.89801 0.0175,-1.94144 -0.51731,-9.01009 -0.77226,-10.20934 -0.0953,-0.44823 -0.32862,-1.91318 -0.5185,-3.25545 -0.1899,-1.34226 -0.39123,-2.51485 -0.44741,-2.60576 -0.0562,-0.0909 -0.29337,-1.17551 -0.52705,-2.41022 -0.2337,-1.23471 -0.54539,-2.67894 -0.69266,-3.20941 -0.14727,-0.53046 -0.26776,-1.14264 -0.26776,-1.3604 0,-0.21775 -0.1539,-0.81561 -0.342,-1.32857 -0.1881,-0.51296 -0.42358,-1.38934 -0.52329,-1.94752 -0.0997,-0.55817 -0.26319,-1.16788 -0.36329,-1.35492 -0.1001,-0.18703 -0.30482,-0.88128 -0.45493,-1.54278 -0.1501,-0.66149 -0.41762,-1.59959 -0.59446,-2.08466 -0.17685,-0.48507 -0.49749,-1.43757 -0.71254,-2.11667 -0.97079,-3.06578 -2.46719,-6.356959 -2.95898,-6.50808 -0.24243,-0.07449 -6.7657,-0.42545 -8.60259,-0.462827 -0.31387,-0.0064 -0.32024,-0.02617 -0.0578,-0.179314 0.16226,-0.09467 2.3737,-0.264191 4.91434,-0.376705 l 4.61931,-0.204572 0.59122,0.690751 c 0.32515,0.379912 0.59418,0.764696 0.59783,0.855074 0.004,0.09038 0.39263,0.963501 0.86441,1.940273 1.57288,3.25641 2.36721,5.135 2.83926,6.71485 0.17392,0.58208 0.43389,1.33614 0.57771,1.67569 0.42872,1.01212 0.86055,2.31423 1.14075,3.43959 0.14492,0.58208 0.40599,1.41552 0.58016,1.85208 0.17418,0.43656 0.37355,1.15094 0.44308,1.5875 0.0695,0.43656 0.27242,1.23031 0.45087,1.76389 0.17844,0.53357 0.41206,1.48607 0.51913,2.11666 0.10707,0.63059 0.30734,1.46403 0.44505,1.85209 0.13771,0.38805 0.33242,1.33006 0.43273,2.09336 0.1003,0.76329 0.29768,1.79516 0.4386,2.29305 0.14093,0.49789 0.34348,1.73869 0.45012,2.75734 0.10665,1.01864 0.31747,2.60614 0.46849,3.52778 0.39652,2.41987 0.40044,9.01976 0.006,10.58333 -0.15898,0.63059 -0.37826,1.66246 -0.48734,2.29305 -0.10906,0.63059 -0.34998,1.47952 -0.53534,1.88651 -0.18539,0.40698 -0.33707,0.83522 -0.33707,0.95163 0,0.25328 -1.1672,2.71062 -1.58429,3.33548 -0.79196,1.18644 -1.52292,2.23744 -1.76417,2.53661 -1.79862,2.23053 -4.2161,4.45418 -6.15883,5.66503 -0.15525,0.0968 -0.52041,0.34297 -0.81146,0.54712 -0.29104,0.20414 -0.79994,0.52184 -1.13088,0.706 -0.33094,0.18415 -0.96594,0.54824 -1.41111,0.8091 -0.44517,0.26085 -1.12689,0.64199 -1.51495,0.84698 -0.38806,0.20499 -1.10243,0.60319 -1.5875,0.8849 -0.48507,0.2817 -1.14302,0.63714 -1.46211,0.78986 -0.92669,0.44353 -2.19981,1.42912 -2.74993,2.12891 -0.27933,0.35532 -0.7426,1.25257 -1.02948,1.99388 l -0.5216,1.34786 -0.17014,6.52638 c -0.0936,3.58952 -0.2073,6.70499 -0.2527,6.92327 -0.0837,0.40235 -0.11456,0.41602 -0.62976,0.27901 z M 96.459447,106.80542 c -0.16275,-0.26334 0.0764,-1.75424 0.28136,-1.75424 0.21523,0 0.21652,1.71159 0.002,1.84455 -0.0903,0.0558 -0.21754,0.0152 -0.28274,-0.0903 z"
       id="path363"
       sodipodi:nodetypes="ssssssssssssssssssssssssssssscssssssssssssscssssssssssssscssssssscssssssssscscssccssssssssssssssssscsssssssssssssssscscssssssssssssscsssscssssssssscsscccsccc"
       inkscape:export-filename="STAKAN.svg"
       inkscape:export-xdpi="96"
       inkscape:export-ydpi="96" /></g><g
     inkscape:groupmode="layer"
     id="layer2"
     inkscape:label="Calque 2"
     style="display:none"
     transform="translate(-69.618013,-132.78982)"><path
       style="fill:#000000;stroke-width:0.264583"
       d="m 95.446335,235.55311 c -4.398515,-1.15185 -7.271168,-3.97102 -8.595876,-8.43583 -0.86524,-2.91622 -0.309039,-7.70376 1.253157,-10.78661 2.496494,-4.9266 9.063606,-6.80853 14.341574,-4.10985 2.50269,1.27965 5.01287,4.4064 5.54102,6.90207 0.62426,2.94981 -0.26705,5.71835 -2.5192,7.82498 -1.98656,1.85819 -3.63165,2.5268 -6.224838,2.52995 -1.765226,0.002 -2.366669,-0.11492 -3.505102,-0.68223 -2.745616,-1.3682 -4.135745,-3.90405 -3.976844,-7.25449 0.04829,-1.01831 5.29e-4,-1.8512 -0.106169,-1.85088 -0.106691,2.7e-4 -0.512236,0.62568 -0.901211,1.38966 -1.055492,2.07308 -1.17402,4.69371 -0.297839,6.58508 1.310744,2.82945 4.055907,4.68945 7.760587,5.25824 3.361396,0.51608 6.378836,-0.31074 8.990546,-2.46353 2.449,-2.01867 6.21895,-8.38656 8.19411,-13.8408 2.22983,-6.1575 3.88217,-14.90163 3.60675,-19.08691 l -0.0392,-0.59531 H 99.785536 80.603244 l 0.01704,1.12448 c 0.0094,0.61847 0.218345,4.12547 0.464392,7.79335 0.246049,3.66788 0.377124,6.58491 0.291282,6.48229 -0.197186,-0.23572 -6.358604,-19.16524 -6.26546,-19.24916 0.118568,-0.10683 7.718115,-0.37025 14.885461,-0.51598 3.783542,-0.0769 8.784167,-0.19645 11.112501,-0.26561 2.32833,-0.0692 6.73364,-0.188 9.78958,-0.2641 3.05594,-0.0761 7.72914,-0.21078 10.3849,-0.29932 4.60069,-0.15338 4.828,-0.13763 4.81504,0.33372 -0.007,0.27209 -0.40692,2.51877 -0.88763,4.99262 -0.48072,2.47386 -0.85132,4.528 -0.82355,4.56477 0.0278,0.0368 1.03516,-0.52496 2.23864,-1.24827 6.32816,-3.80334 10.56777,-3.49721 12.62068,0.91129 0.52478,1.12694 0.61902,1.75237 0.62121,4.1229 0.005,5.86822 -2.22203,11.05858 -6.4097,14.93573 -3.41959,3.166 -7.58322,5.32507 -12.53874,6.502 -3.15365,0.749 -3.46451,0.57274 -1.28079,-0.72622 2.84431,-1.69191 7.12415,-4.98556 9.39965,-7.23369 3.57174,-3.5288 5.31035,-6.8284 5.37336,-10.19777 0.0413,-2.20699 -0.425,-3.12857 -1.89329,-3.74206 -1.26156,-0.52712 -3.03829,-0.28925 -5.50276,0.73671 -3.35389,1.39623 -4.85946,3.22693 -6.20099,7.54015 -1.66633,5.35745 -2.2995,7.08328 -3.46004,9.43097 -1.6869,3.41246 -3.13847,5.51991 -5.24724,7.61814 -2.98257,2.96765 -5.93617,4.60012 -9.78947,5.41069 -2.50298,0.52651 -4.47615,0.48598 -6.870979,-0.14117 z m 88.212115,-9.40183 c -0.43656,-0.0606 -1.92484,-0.23812 -3.30729,-0.39444 -13.1833,-1.49065 -24.84065,-7.33072 -28.19976,-14.12743 -0.93854,-1.89899 -0.96683,-2.04048 -0.85851,-4.29334 0.13574,-2.8229 0.84196,-4.32652 3.24014,-6.89863 5.47748,-5.8747 16.60301,-9.93262 28.68607,-10.46293 2.59612,-0.11394 2.3931,0.0612 -1.01586,0.87654 -3.35925,0.80341 -9.30889,2.93058 -12.5677,4.49332 -4.9292,2.36376 -8.57255,5.28509 -9.7925,7.85188 -1.67513,3.52451 0.30055,7.42875 5.42687,10.72428 5.93863,3.81774 14.81448,6.04169 24.20938,6.06594 5.07679,0.0131 7.98004,-0.31753 12.03397,-1.37049 8.39733,-2.1811 15.35113,-6.44238 17.7452,-10.87422 0.77635,-1.43718 0.90432,-1.9263 0.89484,-3.42052 -0.0277,-4.37307 -4.13118,-8.5617 -10.92539,-11.15217 -1.21649,-0.46382 -2.09703,-0.88156 -1.95676,-0.92832 0.37484,-0.12494 4.83872,0.90514 6.75034,1.55771 7.45023,2.54329 11.81578,6.53212 12.9082,11.79431 0.65761,3.16766 -0.37656,6.15692 -3.15913,9.13151 -1.7425,1.86273 -5.19973,4.37208 -7.8832,5.72184 -4.64512,2.33645 -11.33357,4.37841 -17.06524,5.20996 -2.82531,0.40989 -13.31187,0.75235 -15.16367,0.4952 z M 23.188661,225.63296 C 14.735875,224.44474 6.5326012,220.27421 2.6601365,215.1963 l -1.0114618,-1.32631 h -5.7203446 c -5.6373104,0 -5.7286952,-0.009 -6.2956321,-0.61237 -0.866726,-0.92259 -0.824017,-3.39629 0.07414,-4.29445 l 0.6494316,-0.64943 H 29.526636 c 38.817581,0 39.175123,0.005 39.699525,0.52916 0.420619,0.42062 0.529167,0.88195 0.529167,2.24896 0,2.78491 0.01542,2.77813 -6.314017,2.77813 h -5.255683 l -0.742736,1.07176 c -3.48465,5.02836 -12.397444,9.58301 -20.945218,10.70353 -3.63905,0.47704 -9.868848,0.47127 -13.309013,-0.0123 z m 12.7,-2.35825 c 4.932733,-0.74914 9.17798,-2.32416 13.174625,-4.88791 2.759483,-1.77013 3.281072,-2.3911 1.225828,-1.45939 -2.525516,1.1449 -8.401661,3.25494 -11.037673,3.96347 -4.324059,1.16225 -10.588802,1.41881 -19.06388,0.78071 l -1.629108,-0.12266 1.979014,0.67152 c 4.107731,1.39384 10.310397,1.81982 15.351194,1.05426 z m 151.079419,-8.62443 c -3.05795,-0.30816 -5.74988,-0.93589 -8.16532,-1.90407 -10.2845,-4.12234 -9.795,-11.15377 1.03333,-14.84312 2.68868,-0.91607 8.71715,-1.75418 8.71715,-1.2119 0,0.135 -0.25281,0.24546 -0.5618,0.24546 -0.99803,0 -6.1277,1.84894 -8.16945,2.9446 -3.95451,2.12209 -5.00195,3.95015 -3.64587,6.36298 0.68563,1.21991 2.95076,2.82645 5.17105,3.66757 4.68371,1.77432 11.43476,2.06845 15.87785,0.69176 5.76088,-1.785 9.1665,-4.97178 8.2573,-7.7267 -0.64564,-1.95628 -2.23406,-3.26529 -5.81658,-4.79339 -1.40973,-0.60131 -1.42213,-0.61542 -0.39687,-0.45126 1.5069,0.24127 4.31539,1.12452 5.55625,1.7474 2.79018,1.40062 4.36562,3.51215 4.36562,5.85116 0,1.65839 -0.49444,2.7214 -1.88801,4.05901 -4.07703,3.91333 -12.54465,6.14552 -20.33465,5.3605 z M 18.65856,195.53204 c -3.663174,-1.24867 -6.473538,-4.29814 -7.866124,-8.53538 -0.427159,-1.29972 -0.8342233,-2.92868 -0.9045879,-3.6199 L 9.7599122,182.11999 H 21.231747 32.70358 l 0.137721,-0.59532 c 0.07575,-0.32742 0.420196,-2.7255 0.765437,-5.32906 l 0.627716,-4.73376 -0.628105,-0.92556 c -1.140071,-1.67999 -0.564951,-4.02083 1.236896,-5.03438 0.437591,-0.24615 0.851169,-0.68568 0.919062,-0.97672 0.06789,-0.29104 0.5437,-2.55323 1.057349,-5.02708 3.121281,-15.0328 4.624467,-21.04628 7.010588,-28.04583 2.557086,-7.50108 4.712549,-11.27245 8.697552,-15.21795 4.904558,-4.85593 9.893597,-7.32523 12.837253,-6.35373 1.827395,0.60309 3.331945,2.33913 3.331945,3.84459 0,1.78109 -1.539242,3.16696 -6.614583,5.95549 -6.247778,3.4327 -8.23954,5.09861 -10.87029,9.0919 -5.002543,7.59351 -9.307666,18.99473 -12.043622,31.89499 -0.960389,4.52833 -0.968565,4.61637 -0.466891,5.02709 0.967438,0.79202 1.420386,1.7146 1.420386,2.89307 0,1.53759 -0.785111,2.78214 -2.082572,3.30128 -1.004948,0.40211 -1.017011,0.42438 -1.339993,2.4741 -0.179255,1.13758 -0.844341,4.54399 -1.477968,7.5698 -1.319239,6.29985 -1.968746,7.78843 -4.470715,10.24629 -3.58199,3.51884 -8.006336,4.74559 -12.092186,3.35284 z m 5.202116,-1.64652 c 1.414783,-0.36363 4.884235,-2.35815 4.884235,-2.80785 0,-0.0961 -0.565547,-8e-4 -1.256771,0.2115 -0.73823,0.22682 -2.512189,0.40463 -4.299479,0.43095 -3.594216,0.0529 -5.624772,-0.50156 -8.044896,-2.19686 -0.814057,-0.57025 -1.480104,-0.94477 -1.480104,-0.83226 0,0.1125 0.336029,0.73388 0.746732,1.38083 1.163951,1.8335 3.058029,3.10714 5.664162,3.80878 1.801003,0.48487 1.918081,0.48503 3.786121,0.005 z m 83.207634,-15.99214 c -1.53914,-1.53913 -0.84336,-5.97717 1.97136,-12.57444 2.61758,-6.13519 7.30783,-14.21307 10.5978,-18.25225 l 1.1858,-1.45585 -0.53085,-0.53084 c -0.64712,-0.64713 -0.6965,-2.02868 -0.1028,-2.8763 0.41073,-0.58641 0.39059,-0.6503 -0.49821,-1.58023 -1.23701,-1.29425 -1.6075,-2.57045 -1.4643,-5.04398 0.16636,-2.87383 1.03681,-4.63956 3.45712,-7.01284 2.03606,-1.99649 4.73754,-3.54667 6.62099,-3.7993 0.84154,-0.11287 1.13317,-0.0155 1.76412,0.58898 1.12441,1.07725 2.07897,3.46572 2.56261,6.41205 0.39261,2.39178 0.39404,2.79751 0.0165,4.64894 -0.67024,3.28661 -2.39836,5.27352 -5.36261,6.16562 -0.69208,0.20829 -1.71567,0.37871 -2.27463,0.37871 -0.89219,0 -1.01628,0.0764 -1.01628,0.62578 0,0.79874 -0.95181,2.02005 -1.57431,2.02005 -0.72256,0 -0.91804,0.42314 -1.56997,3.3983 -0.76063,3.47121 -3.38205,11.84499 -5.09806,16.28505 -4.16123,10.76687 -6.75536,14.53146 -8.68426,12.60255 z m 20.95605,-37.73318 c 1.1054,-0.77549 2.58261,-3.19485 2.97441,-4.87147 l 0.15457,-0.66145 -0.46958,0.66145 c -0.98659,1.38975 -2.78463,3.14533 -3.63438,3.54856 -1.9009,0.90204 -4.51668,0.2817 -6.75543,-1.60209 l -0.86598,-0.72867 0.18762,0.64787 c 0.35392,1.22219 1.60201,2.72435 2.79182,3.36016 1.70196,0.90948 4.02428,0.76297 5.61695,-0.35436 z m -29.230765,37.20224 c -2.632314,-2.07058 -2.661455,-11.02865 -0.09727,-29.90287 0.599329,-4.41149 0.607454,-4.66146 0.171993,-5.29167 -0.600554,-0.86914 -1.067155,-2.27464 -1.067155,-3.21448 0,-0.70662 -0.06851,-0.75427 -1.084472,-0.75427 -0.881094,0 -1.23427,-0.16036 -1.883245,-0.85509 -0.75714,-0.81052 -0.792287,-0.94576 -0.674315,-2.59458 0.105656,-1.47669 2.203357,-8.68192 2.4476,-8.40707 0.04046,0.0455 -0.04762,1.27341 -0.195731,2.72862 -0.312317,3.06852 0.01886,5.32329 0.89885,6.11967 0.52945,0.47915 0.552876,0.47662 1.028674,-0.11097 0.267787,-0.3307 0.615217,-1.22263 0.772062,-1.98207 0.253275,-1.22634 0.733547,-7.28452 0.833109,-10.50893 0.02021,-0.65484 0.189055,0.48645 0.375195,2.53621 0.5873,6.46731 1.12382,9.2565 1.91897,9.9761 1.11286,1.00713 1.67744,-0.54167 1.86052,-5.10397 0.14105,-3.51453 0.14912,-3.55276 0.50326,-2.38125 0.74107,2.45149 1.4016,5.86232 1.4016,7.23756 0,1.86427 -0.62565,2.67604 -2.47739,3.21435 -1.35077,0.39268 -1.38184,0.42392 -1.281,1.28767 0.0653,0.55903 -0.10727,1.29805 -0.46821,2.00557 l -0.57156,1.12035 0.68574,5.99485 c 0.37716,3.29717 0.86741,7.42361 1.08944,9.16986 0.56923,4.477 0.79216,13.07419 0.39774,15.33911 -0.68256,3.91956 -2.70788,5.85337 -4.584403,4.3773 z m 89.891945,-1.48606 c -4.77367,-0.47768 -8.81966,-1.48649 -12.57854,-3.13626 -6.67882,-2.93133 -12.60734,-8.92524 -15.99935,-16.17585 -0.61872,-1.32256 -1.20845,-2.66772 -1.3105,-2.98924 -0.18489,-0.58254 -0.182,-0.58306 0.82851,-0.14917 4.62358,1.98528 11.13471,3.44984 19.53488,4.39403 3.78669,0.42563 15.37509,0.4185 18.78541,-0.0115 10.63099,-1.34059 17.99339,-4.13691 18.5382,-7.041 0.63391,-3.37899 -2.57864,-5.5614 -10.73299,-7.29134 -2.62589,-0.55708 -1.76286,-0.64495 2.17244,-0.2212 7.21025,0.7764 12.56689,3.20211 13.70988,6.2084 1.59174,4.18658 -3.82262,13.86249 -10.95682,19.58076 -3.92169,3.14334 -7.8718,5.11238 -12.46612,6.21408 -2.06901,0.49613 -7.33197,0.8378 -9.525,0.61835 z m 5.63694,-1.71894 c 2.55041,-0.39765 7.8995,-2.01156 9.97137,-3.00853 3.93833,-1.8951 8.76114,-5.65753 10.02304,-7.81929 0.44299,-0.75891 0.28767,-0.68117 -1.45521,0.72824 -2.44266,1.9753 -4.48994,3.19966 -7.81357,4.67283 -5.13277,2.27504 -9.13796,3.2149 -14.90737,3.49814 -6.03096,0.29609 -8.41643,-0.31991 -16.13958,-4.16768 -4.44141,-2.21277 -5.0121,-2.4394 -4.10104,-1.62861 4.35927,3.8795 9.01815,6.41379 13.52341,7.35633 4.00996,0.83892 7.19209,0.94653 10.89895,0.36857 z"
       id="path2138"
       sodipodi:nodetypes="sssssscsscssssssccccssssssscsssscssssssssssssssssssssssssssssssssssssscscscscsscssssssssscssssssssssssssssssssscccsscsssssssssssssssssscscsssssccssscsssssssscsssssssssscssscsssssssssssssssssssssscscssssscssssscssssssccssssssssss" /></g><g
     inkscape:groupmode="layer"
     id="layer6"
     inkscape:label="kad"
     style="display:none"
     transform="translate(-69.618013,-132.78982)"><path
       d="m 99.804031,181.42158 c -4.77367,-0.47768 -8.81966,-1.48649 -12.57854,-3.13626 -6.67882,-2.93133 -12.60734,-8.92524 -15.99935,-16.17585 -0.61872,-1.32256 -1.20845,-2.66772 -1.3105,-2.98924 -0.18489,-0.58254 -0.182,-0.58306 0.82851,-0.14917 4.62358,1.98528 11.13471,3.44984 19.53488,4.39403 3.78669,0.42563 15.375089,0.4185 18.785409,-0.0115 10.63099,-1.34059 17.99339,-4.13691 18.5382,-7.041 0.63391,-3.37899 -2.57864,-5.5614 -10.73299,-7.29134 -2.62589,-0.55708 -1.76286,-0.64495 2.17244,-0.2212 7.21025,0.7764 12.56688,3.20211 13.70987,6.2084 1.59174,4.18658 -3.82262,13.86249 -10.95681,19.58076 -3.92169,3.14334 -7.8718,5.11238 -12.46612,6.21408 -2.06901,0.49613 -7.33197,0.8378 -9.524999,0.61835 z"
       style="fill:#000000;stroke-width:0.264583"
       id="path2290"
       sodipodi:nodetypes="cssssscsssssscc" /></g><g
     inkscape:groupmode="layer"
     id="layer5"
     inkscape:label="chami"
     style="display:inline"
     transform="translate(-69.618013,-132.78982)"><path
       d="m 79.298673,187.1883 c -3.985087,-0.79111 -7.042433,-2.72317 -8.557392,-5.40775 -0.464699,-0.82347 -0.907543,-1.85553 -0.984086,-2.29347 l -0.139185,-0.79624 h 12.479981 12.479971 l 0.14982,-0.37719 c 0.08235,-0.20744 0.457124,-1.72679 0.832705,-3.37634 l 0.682876,-2.99917 -0.683301,-0.5864 c -1.240258,-1.06439 -0.614598,-2.54749 1.345588,-3.18964 0.47605,-0.15594 0.92597,-0.43441 0.999835,-0.61882 0.07382,-0.18439 0.591483,-1.61764 1.150265,-3.18499 3.39558,-9.52434 5.03086,-13.3343 7.62667,-17.76901 2.7818,-4.75246 5.12669,-7.14188 9.46189,-9.64164 5.33558,-3.07657 10.76304,-4.64105 13.96539,-4.02554 1.98798,0.38211 3.62475,1.48201 3.62475,2.43582 0,1.12845 -1.67451,2.00649 -7.19587,3.77322 -6.79683,2.17486 -8.96361,3.23034 -11.82556,5.76037 -5.44216,4.81101 -10.12563,12.03449 -13.102,20.20771 -1.04479,2.86901 -1.0537,2.92479 -0.50792,3.185 1.05244,0.50181 1.5452,1.08633 1.5452,1.83297 0,0.97416 -0.85412,1.76268 -2.26559,2.0916 -1.093268,0.25476 -1.106389,0.26887 -1.457754,1.56751 -0.195005,0.72074 -0.918531,2.87893 -1.607849,4.796 -1.43517,3.9914 -2.141762,4.93452 -4.863594,6.49175 -3.896772,2.22943 -8.709934,3.00666 -13.154848,2.12425 z"
       style="fill:#000000;stroke-width:0.219659"
       id="path2246"
       sodipodi:nodetypes="sssccccscssscsssssssssssssss" /></g><g
     inkscape:groupmode="layer"
     id="layer3"
     inkscape:label="Stak"
     style="display:none"
     transform="translate(-69.618013,-132.78982)"><path
       d="m 91.393545,185.46662 c -4.398514,-1.15185 -7.271164,-3.97102 -8.595874,-8.43583 -0.86524,-2.91622 -0.30904,-7.70376 1.25316,-10.78661 2.49649,-4.9266 9.063604,-6.80853 14.341574,-4.10985 2.502685,1.27965 5.012865,4.4064 5.541015,6.90207 0.62426,2.94981 -0.26705,5.71835 -2.5192,7.82498 -1.986555,1.85819 -3.631645,2.5268 -6.224835,2.52995 -1.76522,0.002 -2.36667,-0.11492 -3.5051,-0.68223 -2.745624,-1.3682 -4.135754,-3.90405 -3.976844,-7.25449 0.0483,-1.01831 5.2e-4,-1.8512 -0.10617,-1.85088 -0.10669,2.7e-4 -0.51224,0.62568 -0.90121,1.38966 -1.0555,2.07308 -1.17402,4.69371 -0.29784,6.58508 1.31074,2.82945 4.055904,4.68945 7.760584,5.25824 3.3614,0.51608 6.378835,-0.31074 8.990545,-2.46353 2.449,-2.01867 6.21895,-8.38656 8.19411,-13.8408 2.22983,-6.1575 3.88217,-14.90163 3.60675,-19.08691 l -0.0392,-0.59531 H 95.732755 76.550451 l 0.017,1.12448 c 0.009,0.61847 0.21835,4.12547 0.4644,7.79335 0.24604,3.66788 0.37712,6.58491 0.29128,6.48229 -0.19719,-0.23572 -6.35861,-19.16524 -6.26546,-19.24916 0.11857,-0.10683 7.71811,-0.37025 14.88546,-0.51598 3.783544,-0.0769 8.784174,-0.19645 11.112504,-0.26561 2.32833,-0.0692 6.733635,-0.188 9.789575,-0.2641 3.05594,-0.0761 7.72914,-0.21078 10.3849,-0.29932 4.60069,-0.15338 4.828,-0.13763 4.81504,0.33372 -0.007,0.27209 -0.40692,2.51877 -0.88763,4.99262 -0.48072,2.47386 -0.85132,4.528 -0.82355,4.56477 0.0278,0.0368 1.03516,-0.52496 2.23864,-1.24827 6.32816,-3.80334 10.56777,-3.49721 12.62068,0.91129 0.52478,1.12694 0.61902,1.75237 0.62121,4.1229 0.005,5.86822 -2.22203,11.05858 -6.4097,14.93573 -3.41959,3.166 -7.58322,5.32507 -12.53874,6.502 -3.15365,0.749 -3.46451,0.57274 -1.28079,-0.72622 2.84431,-1.69191 7.12415,-4.98556 9.39965,-7.23369 3.57174,-3.5288 5.31035,-6.8284 5.37336,-10.19777 0.0413,-2.20699 -0.425,-3.12857 -1.89329,-3.74206 -1.26156,-0.52712 -3.03829,-0.28925 -5.50276,0.73671 -3.35389,1.39623 -4.85946,3.22693 -6.20099,7.54015 -1.66633,5.35745 -2.2995,7.08328 -3.46004,9.43097 -1.6869,3.41246 -3.13847,5.51991 -5.24724,7.61814 -2.98257,2.96765 -5.93617,4.60012 -9.789465,5.41069 -2.50298,0.52651 -4.47615,0.48598 -6.87098,-0.14117 z"
       style="fill:#000000;stroke-width:0.264583"
       id="path2168" /></g><g
     inkscape:groupmode="layer"
     id="layer4"
     inkscape:label="Mar ayg"
     style="display:none"
     transform="translate(-69.618013,-132.78982)"><path
       d="m 86.310226,193.79052 c -1.838334,-1.86033 -1.007301,-7.22454 2.354575,-15.19856 3.126414,-7.41552 8.728403,-17.17915 12.657909,-22.06126 l 1.41631,-1.75967 -0.63403,-0.64161 c -0.77293,-0.78217 -0.8319,-2.45203 -0.1228,-3.47655 0.49058,-0.70878 0.46652,-0.786 -0.59505,-1.90999 -1.477482,-1.56435 -1.919989,-3.10688 -1.748949,-6.09659 0.1987,-3.47356 1.238359,-5.60779 4.129149,-8.47633 2.43186,-2.41313 5.65848,-4.28681 7.90806,-4.59216 1.00512,-0.13642 1.35344,-0.0188 2.10704,0.71189 1.34299,1.30206 2.48311,4.18898 3.06076,7.75016 0.46893,2.89091 0.47064,3.38131 0.0197,5.61911 -0.80053,3.97247 -2.86458,6.37402 -6.40505,7.4523 -0.82661,0.25175 -2.04918,0.45774 -2.7168,0.45774 -1.06562,0 -1.21384,0.0924 -1.21384,0.75637 0,0.96544 -1.13682,2.44161 -1.88033,2.44161 -0.86302,0 -1.0965,0.51145 -1.87516,4.10747 -0.90849,4.19561 -4.039492,14.31689 -6.089075,19.68353 -4.970133,13.01378 -8.068538,17.56399 -10.372399,15.23254 z"
       style="fill:#000000;stroke-width:0.317901"
       id="path2670"
       sodipodi:nodetypes="ssscsssssscscssssssss" /></g><g
     inkscape:groupmode="layer"
     id="layer4-8"
     inkscape:label="Mar ayg"
     style="display:none"
     transform="translate(-40.402917,-97.585274)"><path
       d="m 53.085574,157.95278 c -2.094076,-4.12478 2.956285,-15.42797 16.85854,-37.7311 3.249401,-5.21294 3.401439,-5.5232 3.218365,-6.568 -0.252486,-1.44092 -0.03402,-3.48046 0.49964,-4.66457 0.401233,-0.89029 0.343204,-0.98977 -0.918813,-1.5749 -1.094469,-0.50744 -1.442124,-0.91289 -1.85378,-2.16194 -0.480273,-1.45725 -0.447143,-1.64788 0.635626,-3.65731 0.96974,-1.799654 7.666717,-9.669507 7.814041,-9.182557 0.02448,0.08062 -0.782196,1.576979 -1.792492,3.325104 -2.130319,3.686196 -2.999188,6.717773 -2.358331,8.227933 0.385599,0.90861 0.416139,0.91892 1.340797,0.45263 0.520419,-0.26243 1.458444,-1.18609 2.084504,-2.05259 1.010945,-1.39922 5.047472,-8.755405 7.002021,-12.760544 0.396919,-0.813409 -0.04137,0.721771 -0.974042,3.411495 -2.942729,8.486499 -3.860029,12.309639 -3.280916,13.674219 0.810502,1.90982 2.391246,0.28363 5.209223,-5.35904 2.170823,-4.346771 2.202555,-4.39029 1.977253,-2.71033 -0.471463,3.51547 -1.587698,8.19324 -2.368583,9.92592 -1.058569,2.34883 -2.296674,3.01126 -4.902522,2.62301 -1.900867,-0.28319 -1.957198,-0.26174 -2.32239,0.88459 -0.236315,0.74194 -0.870306,1.57366 -1.720399,2.25719 l -1.346134,1.08237 -2.552179,7.94794 c -1.403697,4.37137 -3.137786,9.85268 -3.853543,12.18068 -1.835038,5.96847 -6.43976,16.92858 -8.215762,19.55503 -3.073462,4.54521 -6.687321,5.81521 -8.18015,2.87475 z"
       style="fill:#000000;stroke-width:0.363939"
       id="path2202-3"
       sodipodi:nodetypes="sssssssccsssssssssscscsssss" /></g></svg>
